<mxfile host="www.draw.io" modified="2019-12-23T19:01:35.892Z" agent="Mozilla/5.0 (Windows NT 10.0; WOW64) AppleWebKit/537.36 (KHTML, like Gecko) Chrome/78.0.3904.108 YaBrowser/19.12.1.229 Yowser/2.5 Safari/537.36" etag="SzvEWdNjhUlwFtObS6t0" version="12.4.3" type="github" pages="1">
  <diagram id="jQreH99h2N3myDWHS3vS" name="Page-1">
    <mxGraphModel dx="1161" dy="675" grid="1" gridSize="10" guides="1" tooltips="1" connect="1" arrows="1" fold="1" page="1" pageScale="1" pageWidth="827" pageHeight="1169" math="0" shadow="0">
      <root>
        <mxCell id="0"/>
        <mxCell id="1" parent="0"/>
        <mxCell id="-jVmJ1-V1c3GaRNwtS8Z-36" value="" style="group" parent="1" vertex="1" connectable="0">
          <mxGeometry x="220" y="857" width="220" height="170" as="geometry"/>
        </mxCell>
        <mxCell id="-jVmJ1-V1c3GaRNwtS8Z-124" value="" style="group" parent="-jVmJ1-V1c3GaRNwtS8Z-36" vertex="1" connectable="0">
          <mxGeometry width="220" height="170" as="geometry"/>
        </mxCell>
        <mxCell id="-jVmJ1-V1c3GaRNwtS8Z-30" value="" style="rounded=1;whiteSpace=wrap;html=1;shadow=1;glass=0;comic=0;labelBackgroundColor=none;strokeWidth=2;fillColor=#fff2cc;fontSize=15;strokeColor=#d6b656;" parent="-jVmJ1-V1c3GaRNwtS8Z-124" vertex="1">
          <mxGeometry width="220" height="170" as="geometry"/>
        </mxCell>
        <mxCell id="-jVmJ1-V1c3GaRNwtS8Z-31" value="" style="shape=card;whiteSpace=wrap;html=1;rounded=1;shadow=1;glass=0;comic=0;labelBackgroundColor=none;strokeWidth=2;fillColor=#ffffff;gradientColor=none;fontSize=15;fontColor=#000000;" parent="-jVmJ1-V1c3GaRNwtS8Z-124" vertex="1">
          <mxGeometry x="100" y="50" width="70" height="80" as="geometry"/>
        </mxCell>
        <mxCell id="-jVmJ1-V1c3GaRNwtS8Z-32" value="" style="shape=card;whiteSpace=wrap;html=1;rounded=1;shadow=1;glass=0;comic=0;labelBackgroundColor=none;strokeWidth=2;fillColor=#ffffff;gradientColor=none;fontSize=15;fontColor=#000000;" parent="-jVmJ1-V1c3GaRNwtS8Z-124" vertex="1">
          <mxGeometry x="110" y="60" width="70" height="80" as="geometry"/>
        </mxCell>
        <mxCell id="-jVmJ1-V1c3GaRNwtS8Z-33" value="&lt;br&gt;masscan&lt;br&gt;tool" style="shape=card;whiteSpace=wrap;html=1;rounded=1;shadow=1;glass=0;comic=0;labelBackgroundColor=none;strokeWidth=2;fillColor=#ffffff;gradientColor=none;fontSize=15;fontColor=#000000;" parent="-jVmJ1-V1c3GaRNwtS8Z-124" vertex="1">
          <mxGeometry x="120" y="70" width="70" height="80" as="geometry"/>
        </mxCell>
        <mxCell id="-jVmJ1-V1c3GaRNwtS8Z-35" value="Scan Agent" style="text;html=1;strokeColor=none;fillColor=none;align=center;verticalAlign=middle;whiteSpace=wrap;rounded=0;shadow=1;glass=0;comic=0;labelBackgroundColor=none;fontSize=15;fontColor=#000000;fontStyle=1" parent="-jVmJ1-V1c3GaRNwtS8Z-124" vertex="1">
          <mxGeometry x="10" y="10" width="140" height="20" as="geometry"/>
        </mxCell>
        <mxCell id="-jVmJ1-V1c3GaRNwtS8Z-117" value="&lt;font style=&quot;font-size: 17px&quot;&gt;ID-1&lt;/font&gt;" style="text;html=1;strokeColor=none;fillColor=none;align=left;verticalAlign=middle;whiteSpace=wrap;rounded=0;shadow=1;glass=0;comic=0;labelBackgroundColor=none;fontSize=15;fontColor=#000000;fontStyle=1" parent="-jVmJ1-V1c3GaRNwtS8Z-124" vertex="1">
          <mxGeometry x="20" y="130" width="60" height="20" as="geometry"/>
        </mxCell>
        <mxCell id="-jVmJ1-V1c3GaRNwtS8Z-37" value="" style="group" parent="1" vertex="1" connectable="0">
          <mxGeometry x="351" y="917" width="220" height="170" as="geometry"/>
        </mxCell>
        <mxCell id="-jVmJ1-V1c3GaRNwtS8Z-125" value="" style="group" parent="-jVmJ1-V1c3GaRNwtS8Z-37" vertex="1" connectable="0">
          <mxGeometry width="220" height="170" as="geometry"/>
        </mxCell>
        <mxCell id="-jVmJ1-V1c3GaRNwtS8Z-38" value="" style="rounded=1;whiteSpace=wrap;html=1;shadow=1;glass=0;comic=0;labelBackgroundColor=none;strokeWidth=2;fillColor=#fff2cc;fontSize=15;strokeColor=#d6b656;" parent="-jVmJ1-V1c3GaRNwtS8Z-125" vertex="1">
          <mxGeometry width="220" height="170" as="geometry"/>
        </mxCell>
        <mxCell id="-jVmJ1-V1c3GaRNwtS8Z-39" value="" style="shape=card;whiteSpace=wrap;html=1;rounded=1;shadow=1;glass=0;comic=0;labelBackgroundColor=none;strokeWidth=2;fillColor=#ffffff;gradientColor=none;fontSize=15;fontColor=#000000;" parent="-jVmJ1-V1c3GaRNwtS8Z-125" vertex="1">
          <mxGeometry x="100" y="50" width="70" height="80" as="geometry"/>
        </mxCell>
        <mxCell id="-jVmJ1-V1c3GaRNwtS8Z-40" value="" style="shape=card;whiteSpace=wrap;html=1;rounded=1;shadow=1;glass=0;comic=0;labelBackgroundColor=none;strokeWidth=2;fillColor=#ffffff;gradientColor=none;fontSize=15;fontColor=#000000;" parent="-jVmJ1-V1c3GaRNwtS8Z-125" vertex="1">
          <mxGeometry x="110" y="60" width="70" height="80" as="geometry"/>
        </mxCell>
        <mxCell id="-jVmJ1-V1c3GaRNwtS8Z-41" value="&lt;br&gt;masscan&lt;br&gt;tool" style="shape=card;whiteSpace=wrap;html=1;rounded=1;shadow=1;glass=0;comic=0;labelBackgroundColor=none;strokeWidth=2;fillColor=#ffffff;gradientColor=none;fontSize=15;fontColor=#000000;" parent="-jVmJ1-V1c3GaRNwtS8Z-125" vertex="1">
          <mxGeometry x="120" y="70" width="70" height="80" as="geometry"/>
        </mxCell>
        <mxCell id="-jVmJ1-V1c3GaRNwtS8Z-42" value="Scan Agent" style="text;html=1;strokeColor=none;fillColor=none;align=center;verticalAlign=middle;whiteSpace=wrap;rounded=0;shadow=1;glass=0;comic=0;labelBackgroundColor=none;fontSize=15;fontColor=#000000;fontStyle=1" parent="-jVmJ1-V1c3GaRNwtS8Z-125" vertex="1">
          <mxGeometry x="10" y="10" width="140" height="20" as="geometry"/>
        </mxCell>
        <mxCell id="-jVmJ1-V1c3GaRNwtS8Z-118" value="&lt;font style=&quot;font-size: 17px&quot;&gt;ID-2&lt;/font&gt;" style="text;html=1;strokeColor=none;fillColor=none;align=left;verticalAlign=middle;whiteSpace=wrap;rounded=0;shadow=1;glass=0;comic=0;labelBackgroundColor=none;fontSize=15;fontColor=#000000;fontStyle=1" parent="-jVmJ1-V1c3GaRNwtS8Z-125" vertex="1">
          <mxGeometry x="19" y="123" width="60" height="20" as="geometry"/>
        </mxCell>
        <mxCell id="-jVmJ1-V1c3GaRNwtS8Z-43" value="" style="group" parent="1" vertex="1" connectable="0">
          <mxGeometry x="480" y="977" width="220" height="170" as="geometry"/>
        </mxCell>
        <mxCell id="-jVmJ1-V1c3GaRNwtS8Z-126" value="" style="group" parent="-jVmJ1-V1c3GaRNwtS8Z-43" vertex="1" connectable="0">
          <mxGeometry width="220" height="170" as="geometry"/>
        </mxCell>
        <mxCell id="-jVmJ1-V1c3GaRNwtS8Z-44" value="" style="rounded=1;whiteSpace=wrap;html=1;shadow=1;glass=0;comic=0;labelBackgroundColor=none;strokeWidth=2;fillColor=#fff2cc;fontSize=15;strokeColor=#d6b656;" parent="-jVmJ1-V1c3GaRNwtS8Z-126" vertex="1">
          <mxGeometry width="220" height="170" as="geometry"/>
        </mxCell>
        <mxCell id="-jVmJ1-V1c3GaRNwtS8Z-45" value="" style="shape=card;whiteSpace=wrap;html=1;rounded=1;shadow=1;glass=0;comic=0;labelBackgroundColor=none;strokeWidth=2;fillColor=#ffffff;gradientColor=none;fontSize=15;fontColor=#000000;" parent="-jVmJ1-V1c3GaRNwtS8Z-126" vertex="1">
          <mxGeometry x="100" y="50" width="70" height="80" as="geometry"/>
        </mxCell>
        <mxCell id="-jVmJ1-V1c3GaRNwtS8Z-46" value="" style="shape=card;whiteSpace=wrap;html=1;rounded=1;shadow=1;glass=0;comic=0;labelBackgroundColor=none;strokeWidth=2;fillColor=#ffffff;gradientColor=none;fontSize=15;fontColor=#000000;" parent="-jVmJ1-V1c3GaRNwtS8Z-126" vertex="1">
          <mxGeometry x="110" y="60" width="70" height="80" as="geometry"/>
        </mxCell>
        <mxCell id="-jVmJ1-V1c3GaRNwtS8Z-47" value="&lt;br&gt;masscan&lt;br&gt;tool" style="shape=card;whiteSpace=wrap;html=1;rounded=1;shadow=1;glass=0;comic=0;labelBackgroundColor=none;strokeWidth=2;fillColor=#ffffff;gradientColor=none;fontSize=15;fontColor=#000000;" parent="-jVmJ1-V1c3GaRNwtS8Z-126" vertex="1">
          <mxGeometry x="120" y="70" width="70" height="80" as="geometry"/>
        </mxCell>
        <mxCell id="-jVmJ1-V1c3GaRNwtS8Z-48" value="Scan Agent" style="text;html=1;strokeColor=none;fillColor=none;align=center;verticalAlign=middle;whiteSpace=wrap;rounded=0;shadow=1;glass=0;comic=0;labelBackgroundColor=none;fontSize=15;fontColor=#000000;fontStyle=1" parent="-jVmJ1-V1c3GaRNwtS8Z-126" vertex="1">
          <mxGeometry x="10" y="10" width="140" height="20" as="geometry"/>
        </mxCell>
        <mxCell id="-jVmJ1-V1c3GaRNwtS8Z-123" value="&lt;font style=&quot;font-size: 17px&quot;&gt;ID-n&lt;/font&gt;" style="text;html=1;strokeColor=none;fillColor=none;align=left;verticalAlign=middle;whiteSpace=wrap;rounded=0;shadow=1;glass=0;comic=0;labelBackgroundColor=none;fontSize=15;fontColor=#000000;fontStyle=1" parent="-jVmJ1-V1c3GaRNwtS8Z-126" vertex="1">
          <mxGeometry x="25" y="130" width="60" height="20" as="geometry"/>
        </mxCell>
        <mxCell id="-jVmJ1-V1c3GaRNwtS8Z-95" value="" style="group" parent="1" vertex="1" connectable="0">
          <mxGeometry x="140" y="694" width="340" height="423" as="geometry"/>
        </mxCell>
        <mxCell id="-jVmJ1-V1c3GaRNwtS8Z-93" value="" style="endArrow=classic;html=1;strokeWidth=2;fontSize=15;fontColor=#3045FF;strokeColor=#009900;exitX=0;exitY=0.75;exitDx=0;exitDy=0;" parent="-jVmJ1-V1c3GaRNwtS8Z-95" edge="1">
          <mxGeometry width="50" height="50" relative="1" as="geometry">
            <mxPoint x="80" y="283" as="sourcePoint"/>
            <mxPoint x="48" y="283" as="targetPoint"/>
          </mxGeometry>
        </mxCell>
        <mxCell id="-jVmJ1-V1c3GaRNwtS8Z-86" value="&lt;b&gt;&lt;font style=&quot;font-size: 17px&quot;&gt;Results queue&lt;/font&gt;&lt;/b&gt;" style="shape=internalStorage;whiteSpace=wrap;html=1;dx=15;dy=15;rounded=1;arcSize=8;strokeWidth=2;shadow=1;glass=0;comic=0;labelBackgroundColor=none;fillColor=#ffffff;gradientColor=none;fontSize=15;fontColor=#000000;" parent="-jVmJ1-V1c3GaRNwtS8Z-95" vertex="1">
          <mxGeometry width="190" height="60" as="geometry"/>
        </mxCell>
        <mxCell id="-jVmJ1-V1c3GaRNwtS8Z-89" value="" style="endArrow=classic;html=1;strokeWidth=2;fontSize=15;fontColor=#3045FF;strokeColor=#009900;" parent="-jVmJ1-V1c3GaRNwtS8Z-95" edge="1">
          <mxGeometry width="50" height="50" relative="1" as="geometry">
            <mxPoint x="45" y="423" as="sourcePoint"/>
            <mxPoint x="50" y="63" as="targetPoint"/>
          </mxGeometry>
        </mxCell>
        <mxCell id="-jVmJ1-V1c3GaRNwtS8Z-90" value="" style="endArrow=classic;html=1;strokeWidth=2;fontSize=15;fontColor=#3045FF;strokeColor=#009900;exitX=0;exitY=0.75;exitDx=0;exitDy=0;" parent="-jVmJ1-V1c3GaRNwtS8Z-95" source="-jVmJ1-V1c3GaRNwtS8Z-38" edge="1">
          <mxGeometry width="50" height="50" relative="1" as="geometry">
            <mxPoint x="210" y="353" as="sourcePoint"/>
            <mxPoint x="45" y="351" as="targetPoint"/>
          </mxGeometry>
        </mxCell>
        <mxCell id="-jVmJ1-V1c3GaRNwtS8Z-91" value="" style="endArrow=classic;html=1;strokeWidth=2;fontSize=15;fontColor=#3045FF;strokeColor=#009900;exitX=0;exitY=0.75;exitDx=0;exitDy=0;" parent="-jVmJ1-V1c3GaRNwtS8Z-95" edge="1">
          <mxGeometry width="50" height="50" relative="1" as="geometry">
            <mxPoint x="340" y="423" as="sourcePoint"/>
            <mxPoint x="47" y="423" as="targetPoint"/>
          </mxGeometry>
        </mxCell>
        <mxCell id="-jVmJ1-V1c3GaRNwtS8Z-112" value="" style="group" parent="1" vertex="1" connectable="0">
          <mxGeometry x="590" y="537" width="190" height="470" as="geometry"/>
        </mxCell>
        <mxCell id="-jVmJ1-V1c3GaRNwtS8Z-85" value="&lt;b&gt;&lt;font style=&quot;font-size: 17px&quot;&gt;Service queue&lt;/font&gt;&lt;/b&gt;" style="shape=internalStorage;whiteSpace=wrap;html=1;dx=15;dy=15;rounded=1;arcSize=8;strokeWidth=2;shadow=1;glass=0;comic=0;labelBackgroundColor=none;fillColor=#ffffff;gradientColor=none;fontSize=15;fontColor=#000000;" parent="-jVmJ1-V1c3GaRNwtS8Z-112" vertex="1">
          <mxGeometry y="157" width="190" height="60" as="geometry"/>
        </mxCell>
        <mxCell id="-jVmJ1-V1c3GaRNwtS8Z-97" value="&lt;font color=&quot;#0000ff&quot;&gt;Service messages&amp;nbsp; &amp;nbsp;&amp;nbsp;&lt;/font&gt;" style="strokeWidth=2;html=1;shape=mxgraph.flowchart.multi-document;whiteSpace=wrap;rounded=1;shadow=1;glass=0;comic=0;labelBackgroundColor=none;fillColor=#ffffff;gradientColor=none;fontSize=15;fontColor=#3045FF;" parent="-jVmJ1-V1c3GaRNwtS8Z-112" vertex="1">
          <mxGeometry x="30" y="67" width="160" height="60" as="geometry"/>
        </mxCell>
        <mxCell id="-jVmJ1-V1c3GaRNwtS8Z-107" value="" style="endArrow=classic;html=1;strokeColor=#0000FF;strokeWidth=2;fontSize=15;fontColor=#3045FF;entryX=0.648;entryY=-0.01;entryDx=0;entryDy=0;entryPerimeter=0;" parent="-jVmJ1-V1c3GaRNwtS8Z-112" target="-jVmJ1-V1c3GaRNwtS8Z-97" edge="1">
          <mxGeometry width="50" height="50" relative="1" as="geometry">
            <mxPoint x="135" as="sourcePoint"/>
            <mxPoint x="85" y="50" as="targetPoint"/>
          </mxGeometry>
        </mxCell>
        <mxCell id="-jVmJ1-V1c3GaRNwtS8Z-108" value="" style="endArrow=classic;html=1;strokeColor=#0000FF;strokeWidth=2;fontSize=15;fontColor=#3045FF;entryX=0.648;entryY=-0.01;entryDx=0;entryDy=0;entryPerimeter=0;exitX=0.639;exitY=0.834;exitDx=0;exitDy=0;exitPerimeter=0;" parent="-jVmJ1-V1c3GaRNwtS8Z-112" source="-jVmJ1-V1c3GaRNwtS8Z-97" edge="1">
          <mxGeometry width="50" height="50" relative="1" as="geometry">
            <mxPoint x="133" y="88" as="sourcePoint"/>
            <mxPoint x="131.67999999999984" y="154.39999999999986" as="targetPoint"/>
          </mxGeometry>
        </mxCell>
        <mxCell id="-jVmJ1-V1c3GaRNwtS8Z-109" value="" style="endArrow=classic;html=1;strokeColor=#0000FF;strokeWidth=2;fontSize=15;fontColor=#3045FF;comic=0;shadow=0;entryX=1.011;entryY=0.185;entryDx=0;entryDy=0;entryPerimeter=0;" parent="-jVmJ1-V1c3GaRNwtS8Z-112" target="-jVmJ1-V1c3GaRNwtS8Z-44" edge="1">
          <mxGeometry width="50" height="50" relative="1" as="geometry">
            <mxPoint x="131.32000000000005" y="217" as="sourcePoint"/>
            <mxPoint x="130" y="477" as="targetPoint"/>
            <Array as="points">
              <mxPoint x="131" y="470"/>
            </Array>
          </mxGeometry>
        </mxCell>
        <mxCell id="-jVmJ1-V1c3GaRNwtS8Z-128" value="" style="endArrow=classic;html=1;shadow=0;strokeColor=#0000FF;strokeWidth=2;fontSize=15;fontColor=#3045FF;jumpStyle=arc;entryX=0.986;entryY=0.179;entryDx=0;entryDy=0;entryPerimeter=0;" parent="-jVmJ1-V1c3GaRNwtS8Z-112" target="-jVmJ1-V1c3GaRNwtS8Z-38" edge="1">
          <mxGeometry width="50" height="50" relative="1" as="geometry">
            <mxPoint x="130" y="410" as="sourcePoint"/>
            <mxPoint x="-10" y="410" as="targetPoint"/>
            <Array as="points">
              <mxPoint x="130" y="410"/>
            </Array>
          </mxGeometry>
        </mxCell>
        <mxCell id="-jVmJ1-V1c3GaRNwtS8Z-113" value="" style="group" parent="1" vertex="1" connectable="0">
          <mxGeometry x="320" y="604" width="290" height="250" as="geometry"/>
        </mxCell>
        <mxCell id="-jVmJ1-V1c3GaRNwtS8Z-94" value="" style="group" parent="-jVmJ1-V1c3GaRNwtS8Z-113" vertex="1" connectable="0">
          <mxGeometry width="290" height="250" as="geometry"/>
        </mxCell>
        <mxCell id="-jVmJ1-V1c3GaRNwtS8Z-69" value="" style="endArrow=classic;html=1;strokeWidth=2;fontSize=15;fontColor=#000000;entryX=0.5;entryY=0;entryDx=0;entryDy=0;" parent="-jVmJ1-V1c3GaRNwtS8Z-94" edge="1">
          <mxGeometry width="50" height="50" relative="1" as="geometry">
            <mxPoint y="190" as="sourcePoint"/>
            <mxPoint y="250" as="targetPoint"/>
          </mxGeometry>
        </mxCell>
        <mxCell id="-jVmJ1-V1c3GaRNwtS8Z-71" value="" style="endArrow=classic;html=1;strokeWidth=2;fontSize=15;fontColor=#000000;entryX=0.5;entryY=0;entryDx=0;entryDy=0;" parent="-jVmJ1-V1c3GaRNwtS8Z-94" target="-jVmJ1-V1c3GaRNwtS8Z-38" edge="1">
          <mxGeometry width="50" height="50" relative="1" as="geometry">
            <mxPoint x="144.57" y="190" as="sourcePoint"/>
            <mxPoint x="144.57" y="250" as="targetPoint"/>
          </mxGeometry>
        </mxCell>
        <mxCell id="-jVmJ1-V1c3GaRNwtS8Z-72" value="" style="endArrow=classic;html=1;strokeWidth=2;fontSize=15;fontColor=#000000;entryX=0.598;entryY=0.003;entryDx=0;entryDy=0;entryPerimeter=0;" parent="-jVmJ1-V1c3GaRNwtS8Z-94" target="-jVmJ1-V1c3GaRNwtS8Z-44" edge="1">
          <mxGeometry width="50" height="50" relative="1" as="geometry">
            <mxPoint x="290" y="190" as="sourcePoint"/>
            <mxPoint x="290" y="250" as="targetPoint"/>
          </mxGeometry>
        </mxCell>
        <mxCell id="-jVmJ1-V1c3GaRNwtS8Z-60" value="" style="endArrow=none;html=1;fontSize=15;fontColor=#000000;entryX=0.5;entryY=1;entryDx=0;entryDy=0;strokeWidth=2;" parent="-jVmJ1-V1c3GaRNwtS8Z-94" target="-jVmJ1-V1c3GaRNwtS8Z-51" edge="1">
          <mxGeometry width="50" height="50" relative="1" as="geometry">
            <mxPoint x="145" y="190" as="sourcePoint"/>
            <mxPoint x="150" y="170" as="targetPoint"/>
          </mxGeometry>
        </mxCell>
        <mxCell id="-jVmJ1-V1c3GaRNwtS8Z-51" value="&lt;b&gt;&lt;font style=&quot;font-size: 17px&quot;&gt;Tasks queue&lt;/font&gt;&lt;/b&gt;" style="shape=internalStorage;whiteSpace=wrap;html=1;dx=15;dy=15;rounded=1;arcSize=8;strokeWidth=2;shadow=1;glass=0;comic=0;labelBackgroundColor=none;fillColor=#ffffff;gradientColor=none;fontSize=15;fontColor=#000000;" parent="-jVmJ1-V1c3GaRNwtS8Z-94" vertex="1">
          <mxGeometry x="50" y="90" width="190" height="60" as="geometry"/>
        </mxCell>
        <mxCell id="-jVmJ1-V1c3GaRNwtS8Z-52" value="job for specified&amp;nbsp; &amp;nbsp;&lt;br&gt;goals scanning&amp;nbsp; &amp;nbsp;" style="strokeWidth=2;html=1;shape=mxgraph.flowchart.multi-document;whiteSpace=wrap;rounded=1;shadow=1;glass=0;comic=0;labelBackgroundColor=none;fillColor=#ffffff;gradientColor=none;fontSize=15;fontColor=#000000;" parent="-jVmJ1-V1c3GaRNwtS8Z-94" vertex="1">
          <mxGeometry x="65" width="160" height="60" as="geometry"/>
        </mxCell>
        <mxCell id="-jVmJ1-V1c3GaRNwtS8Z-55" value="" style="endArrow=classic;html=1;fontSize=15;fontColor=#000000;exitX=0.5;exitY=0.88;exitDx=0;exitDy=0;exitPerimeter=0;strokeWidth=2;" parent="-jVmJ1-V1c3GaRNwtS8Z-94" edge="1">
          <mxGeometry width="50" height="50" relative="1" as="geometry">
            <mxPoint x="144.57" y="52.799999999999955" as="sourcePoint"/>
            <mxPoint x="144.57" y="90" as="targetPoint"/>
          </mxGeometry>
        </mxCell>
        <mxCell id="-jVmJ1-V1c3GaRNwtS8Z-61" value="" style="endArrow=none;html=1;fontSize=15;fontColor=#000000;strokeWidth=2;" parent="-jVmJ1-V1c3GaRNwtS8Z-94" edge="1">
          <mxGeometry width="50" height="50" relative="1" as="geometry">
            <mxPoint x="290" y="190" as="sourcePoint"/>
            <mxPoint y="190" as="targetPoint"/>
          </mxGeometry>
        </mxCell>
        <mxCell id="-jVmJ1-V1c3GaRNwtS8Z-111" value="" style="endArrow=classic;html=1;shadow=0;strokeColor=#0000FF;strokeWidth=2;fontSize=15;fontColor=#3045FF;targetPerimeterSpacing=0;sourcePerimeterSpacing=0;jumpStyle=arc;jumpSize=14;entryX=0.991;entryY=0.173;entryDx=0;entryDy=0;entryPerimeter=0;" parent="-jVmJ1-V1c3GaRNwtS8Z-94" target="-jVmJ1-V1c3GaRNwtS8Z-30" edge="1">
          <mxGeometry width="50" height="50" relative="1" as="geometry">
            <mxPoint x="399" y="283" as="sourcePoint"/>
            <mxPoint x="249.99999999999977" y="283.0000000000001" as="targetPoint"/>
          </mxGeometry>
        </mxCell>
        <mxCell id="-jVmJ1-V1c3GaRNwtS8Z-114" value="" style="group" parent="1" vertex="1" connectable="0">
          <mxGeometry x="140" y="538" width="160" height="154" as="geometry"/>
        </mxCell>
        <mxCell id="-jVmJ1-V1c3GaRNwtS8Z-99" value="" style="endArrow=classic;html=1;strokeColor=#009900;strokeWidth=2;fontSize=15;fontColor=#3045FF;" parent="-jVmJ1-V1c3GaRNwtS8Z-114" edge="1">
          <mxGeometry width="50" height="50" relative="1" as="geometry">
            <mxPoint x="54" y="66" as="sourcePoint"/>
            <mxPoint x="54" as="targetPoint"/>
          </mxGeometry>
        </mxCell>
        <mxCell id="-jVmJ1-V1c3GaRNwtS8Z-96" value="&lt;font color=&quot;#009900&quot;&gt;Scan Results&amp;nbsp; &amp;nbsp;&lt;/font&gt;" style="strokeWidth=2;html=1;shape=mxgraph.flowchart.multi-document;whiteSpace=wrap;rounded=1;shadow=1;glass=0;comic=0;labelBackgroundColor=none;fillColor=#ffffff;gradientColor=none;fontSize=15;fontColor=#3045FF;" parent="-jVmJ1-V1c3GaRNwtS8Z-114" vertex="1">
          <mxGeometry y="66" width="160" height="60" as="geometry"/>
        </mxCell>
        <mxCell id="-jVmJ1-V1c3GaRNwtS8Z-104" value="" style="endArrow=classic;html=1;strokeColor=#009900;strokeWidth=2;fontSize=15;fontColor=#3045FF;" parent="-jVmJ1-V1c3GaRNwtS8Z-114" edge="1">
          <mxGeometry width="50" height="50" relative="1" as="geometry">
            <mxPoint x="52" y="154" as="sourcePoint"/>
            <mxPoint x="53" y="122.99999999999989" as="targetPoint"/>
          </mxGeometry>
        </mxCell>
        <mxCell id="-jVmJ1-V1c3GaRNwtS8Z-79" value="" style="endArrow=classic;html=1;strokeWidth=2;fontSize=15;fontColor=#000000;entryX=0.5;entryY=0;entryDx=0;entryDy=0;entryPerimeter=0;exitX=0.514;exitY=1.022;exitDx=0;exitDy=0;exitPerimeter=0;" parent="1" target="-jVmJ1-V1c3GaRNwtS8Z-52" edge="1">
          <mxGeometry width="50" height="50" relative="1" as="geometry">
            <mxPoint x="466.2500000000002" y="539.3679999999999" as="sourcePoint"/>
            <mxPoint x="-120" y="-530" as="targetPoint"/>
          </mxGeometry>
        </mxCell>
        <mxCell id="-jVmJ1-V1c3GaRNwtS8Z-132" value="" style="group" parent="1" vertex="1" connectable="0">
          <mxGeometry x="130" y="200" width="130" height="140" as="geometry"/>
        </mxCell>
        <mxCell id="-jVmJ1-V1c3GaRNwtS8Z-129" value="&lt;font color=&quot;#009900&quot;&gt;Elastic&lt;br&gt;Results storage&lt;/font&gt;" style="shape=datastore;whiteSpace=wrap;html=1;rounded=1;shadow=1;glass=0;comic=0;labelBackgroundColor=none;strokeWidth=2;fillColor=#ffffff;gradientColor=none;fontSize=15;fontColor=#3045FF;" parent="-jVmJ1-V1c3GaRNwtS8Z-132" vertex="1">
          <mxGeometry width="130" height="90" as="geometry"/>
        </mxCell>
        <mxCell id="-jVmJ1-V1c3GaRNwtS8Z-130" value="" style="endArrow=classic;html=1;shadow=0;strokeColor=#009900;strokeWidth=2;fontSize=15;fontColor=#3045FF;" parent="-jVmJ1-V1c3GaRNwtS8Z-132" target="-jVmJ1-V1c3GaRNwtS8Z-129" edge="1">
          <mxGeometry width="50" height="50" relative="1" as="geometry">
            <mxPoint x="65" y="140" as="sourcePoint"/>
            <mxPoint x="115" y="97" as="targetPoint"/>
          </mxGeometry>
        </mxCell>
        <mxCell id="-jVmJ1-V1c3GaRNwtS8Z-157" value="" style="group" parent="1" vertex="1" connectable="0">
          <mxGeometry x="120" y="336" width="670" height="200" as="geometry"/>
        </mxCell>
        <mxCell id="-jVmJ1-V1c3GaRNwtS8Z-150" value="" style="group" parent="-jVmJ1-V1c3GaRNwtS8Z-157" vertex="1" connectable="0">
          <mxGeometry width="670" height="200" as="geometry"/>
        </mxCell>
        <mxCell id="-jVmJ1-V1c3GaRNwtS8Z-141" value="" style="rounded=1;whiteSpace=wrap;html=1;shadow=1;glass=0;comic=0;labelBackgroundColor=none;strokeWidth=2;fillColor=#fff2cc;fontSize=15;strokeColor=#d6b656;" parent="-jVmJ1-V1c3GaRNwtS8Z-150" vertex="1">
          <mxGeometry width="670" height="200" as="geometry"/>
        </mxCell>
        <mxCell id="-jVmJ1-V1c3GaRNwtS8Z-149" value="&lt;b&gt;WEB Administration (Scan Server)&lt;/b&gt;" style="text;html=1;strokeColor=none;fillColor=none;align=left;verticalAlign=middle;whiteSpace=wrap;rounded=0;shadow=1;glass=0;comic=0;labelBackgroundColor=none;fontSize=15;fontColor=#000000;" parent="-jVmJ1-V1c3GaRNwtS8Z-150" vertex="1">
          <mxGeometry x="40" y="14" width="320" height="20" as="geometry"/>
        </mxCell>
        <mxCell id="-jVmJ1-V1c3GaRNwtS8Z-151" value="" style="group" parent="-jVmJ1-V1c3GaRNwtS8Z-157" vertex="1" connectable="0">
          <mxGeometry x="500" y="44" width="140" height="130" as="geometry"/>
        </mxCell>
        <mxCell id="-jVmJ1-V1c3GaRNwtS8Z-152" value="Module&amp;nbsp;&lt;br&gt;&lt;u&gt;&amp;nbsp; &amp;nbsp;Smart&amp;nbsp; Server&amp;nbsp; &amp;nbsp;&lt;/u&gt;&lt;br&gt;&lt;br&gt;&lt;br&gt;&lt;br&gt;&lt;br&gt;" style="shape=card;whiteSpace=wrap;html=1;rounded=1;shadow=1;glass=0;comic=0;labelBackgroundColor=none;strokeWidth=2;fillColor=#ffffff;gradientColor=none;fontSize=15;fontColor=#3045FF;" parent="-jVmJ1-V1c3GaRNwtS8Z-151" vertex="1">
          <mxGeometry width="140" height="130" as="geometry"/>
        </mxCell>
        <mxCell id="-jVmJ1-V1c3GaRNwtS8Z-153" value="&lt;br style=&quot;color: rgb(0 , 0 , 0)&quot;&gt;&lt;span style=&quot;color: rgb(0 , 0 , 0)&quot;&gt;- software agent&amp;nbsp; &amp;nbsp; &amp;nbsp;management&lt;br&gt;&lt;br&gt;&lt;br&gt;&lt;br&gt;&lt;/span&gt;" style="text;html=1;strokeColor=none;fillColor=none;align=left;verticalAlign=middle;whiteSpace=wrap;rounded=0;shadow=1;glass=0;comic=0;labelBackgroundColor=none;fontSize=15;fontColor=#3045FF;" parent="-jVmJ1-V1c3GaRNwtS8Z-151" vertex="1">
          <mxGeometry x="10" y="50" width="120" height="70" as="geometry"/>
        </mxCell>
        <mxCell id="-jVmJ1-V1c3GaRNwtS8Z-154" value="" style="group" parent="-jVmJ1-V1c3GaRNwtS8Z-157" vertex="1" connectable="0">
          <mxGeometry x="350" y="44" width="140" height="130" as="geometry"/>
        </mxCell>
        <mxCell id="-jVmJ1-V1c3GaRNwtS8Z-155" value="&lt;font color=&quot;#000000&quot;&gt;Module&amp;nbsp;&lt;br&gt;&lt;u&gt;&amp;nbsp; &amp;nbsp; Autodeploy&amp;nbsp; &amp;nbsp;&amp;nbsp;&lt;/u&gt;&lt;br&gt;&lt;br&gt;&lt;br&gt;&lt;br&gt;&lt;br&gt;&lt;/font&gt;" style="shape=card;whiteSpace=wrap;html=1;rounded=1;shadow=1;glass=0;comic=0;labelBackgroundColor=none;strokeWidth=2;fillColor=#ffffff;gradientColor=none;fontSize=15;fontColor=#3045FF;" parent="-jVmJ1-V1c3GaRNwtS8Z-154" vertex="1">
          <mxGeometry width="140" height="130" as="geometry"/>
        </mxCell>
        <mxCell id="-jVmJ1-V1c3GaRNwtS8Z-156" value="&lt;br style=&quot;color: rgb(0 , 0 , 0)&quot;&gt;&lt;span style=&quot;color: rgb(0 , 0 , 0)&quot;&gt;- create new VPS&lt;br&gt;- deploy agent&lt;br&gt;- start agent&lt;br&gt;- story agent ID&lt;br&gt;&lt;br&gt;&lt;/span&gt;" style="text;html=1;strokeColor=none;fillColor=none;align=left;verticalAlign=middle;whiteSpace=wrap;rounded=0;shadow=1;glass=0;comic=0;labelBackgroundColor=none;fontSize=15;fontColor=#3045FF;" parent="-jVmJ1-V1c3GaRNwtS8Z-154" vertex="1">
          <mxGeometry x="10" y="50" width="120" height="70" as="geometry"/>
        </mxCell>
      </root>
    </mxGraphModel>
  </diagram>
</mxfile>
